<svg width="28" height="28" viewBox="0 0 28 28" fill="none" xmlns="http://www.w3.org/2000/svg">
<path d="M25.4397 11.7151L24.4999 11.7151L24.4999 11.6667L13.9999 11.6667L13.9999 16.3334L20.5934 16.3334C19.6314 19.05 17.0467 21 13.9999 21C10.1342 21 6.99995 17.8658 6.99995 14C6.99995 10.1343 10.1342 7.00004 13.9999 7.00004C15.7844 7.00004 17.4078 7.67321 18.6439 8.77279L21.9438 5.47287C19.8601 3.53096 17.0729 2.33337 13.9999 2.33337C7.55703 2.33337 2.33328 7.55712 2.33328 14C2.33328 20.443 7.55703 25.6667 13.9999 25.6667C20.4429 25.6667 25.6666 20.443 25.6666 14C25.6666 13.2178 25.5861 12.4542 25.4397 11.7151Z" fill="#FBC02D"/>
<path d="M3.67842 8.56999L7.51142 11.3812C8.54856 8.81325 11.0603 7.00019 13.9997 7.00019C15.7841 7.00019 17.4074 7.67338 18.6435 8.773L21.9433 5.47298C19.8597 3.531 17.0726 2.33337 13.9997 2.33337C9.51862 2.33337 5.63254 4.86337 3.67842 8.56999Z" fill="#E53935"/>
<path d="M13.9998 25.667C17.0132 25.667 19.7513 24.5137 21.8215 22.6382L18.2108 19.5826C17.0394 20.4699 15.5835 21.0002 13.9998 21.0002C10.9653 21.0002 8.38881 19.0652 7.41817 16.3649L3.61375 19.2962C5.54454 23.0746 9.46562 25.667 13.9998 25.667Z" fill="#4CAF50"/>
<path d="M25.4395 11.715L25.4302 11.6666L24.4998 11.6666L14 11.6666L14 16.3334L20.5933 16.3334C20.1313 17.6384 19.2919 18.7637 18.2092 19.5833L18.211 19.5821L21.8217 22.6377C21.5662 22.8699 25.6664 19.8336 25.6664 14C25.6664 13.2178 25.5859 12.4542 25.4395 11.715Z" fill="#1565C0"/>
</svg>
