<svg width="46" height="46" viewBox="0 0 46 46" fill="none" xmlns="http://www.w3.org/2000/svg">
<g clip-path="url(#clip0_15_85)">
<path d="M9.39946 41.3746C8.15392 34.3108 12.8706 27.5748 19.9344 26.3293C26.9982 25.0837 33.7342 29.8003 34.9797 36.8642L31.7822 37.428C30.8481 32.1301 25.796 28.5926 20.4982 29.5268C15.2003 30.461 11.6628 35.513 12.597 40.8108L9.39946 41.3746ZM19.6524 24.7305C14.3525 25.665 9.30293 22.1292 8.36841 16.8293C7.43389 11.5294 10.9697 6.47981 16.2696 5.54529C21.5695 4.61077 26.6191 8.14655 27.5536 13.4465C28.4881 18.7464 24.9524 23.796 19.6524 24.7305ZM19.0886 21.533C22.6219 20.91 24.9791 17.5435 24.3561 14.0103C23.7331 10.477 20.3667 8.11981 16.8334 8.74283C13.3001 9.36584 10.9429 12.7322 11.5659 16.2655C12.189 19.7988 15.5554 22.156 19.0886 21.533ZM33.3762 25.1177C38.1752 26.3375 42.0579 30.2618 42.9736 35.4546L39.776 36.0184C39.0893 32.1238 36.1773 29.1806 32.578 28.2657L33.3762 25.1177ZM29.0944 7.26204C32.5213 8.01583 35.3229 10.7637 35.9703 14.4351C36.7794 19.0239 33.9328 23.408 29.5206 24.602L28.9532 21.3837C31.5975 20.5178 33.2701 17.8191 32.7728 14.9989C32.3836 12.7916 30.7707 11.1088 28.7546 10.5252L29.0944 7.26204Z" fill="black"/>
</g>
<defs>
<clipPath id="clip0_15_85">
<rect width="38.9623" height="38.9623" fill="white" transform="translate(0 6.76562) rotate(-10)"/>
</clipPath>
</defs>
</svg>
