<svg width="35" height="35" viewBox="0 0 35 35" fill="none" xmlns="http://www.w3.org/2000/svg">
<path d="M20.1402 20.6908L20.04 23.5619C19.1909 23.2281 18.2717 23.0305 17.308 22.9968C12.7545 22.8378 8.93416 26.4003 8.77515 30.9539L6.02682 30.8579C6.23884 24.7864 11.3326 20.0365 17.404 20.2485C18.353 20.2816 19.2698 20.434 20.1402 20.6908ZM17.452 18.8743C12.8967 18.7153 9.33587 14.8968 9.49495 10.3414C9.65403 5.78609 13.4725 2.22531 18.0278 2.38438C22.5832 2.54346 26.144 6.36193 25.9849 10.9173C25.8258 15.4726 22.0074 19.0334 17.452 18.8743ZM17.548 16.126C20.5849 16.2321 23.1305 13.8582 23.2366 10.8213C23.3426 7.78441 20.9688 5.23876 17.9319 5.13271C14.895 5.02666 12.3493 7.40051 12.2433 10.4374C12.1372 13.4743 14.5111 16.02 17.548 16.126ZM25.505 24.6589L25.649 20.5364L28.3973 20.6324L28.2534 24.7549L32.3758 24.8988L32.2799 27.6472L28.1574 27.5032L28.0134 31.6257L25.2651 31.5297L25.4091 27.4072L21.2866 27.2633L21.3825 24.5149L25.505 24.6589Z" fill="black"/>
</svg>
